<?xml version="1.0" encoding="utf-8"?>
<!-- Generator: Adobe Illustrator 24.0.1, SVG Export Plug-In . SVG Version: 6.00 Build 0)  -->
<svg version="1.1" id="Layer_1" xmlns="http://www.w3.org/2000/svg" xmlns:xlink="http://www.w3.org/1999/xlink" x="0px" y="0px"
	 viewBox="0 0 89.1 89.1" style="enable-background:new 0 0 89.1 89.1;" xml:space="preserve">
<style type="text/css">
	.st0{fill:#FFF800;}
	.st1{fill:#15161B;}
	.st2{fill:#FFFFFF;}
</style>
<circle class="st0" cx="44.5" cy="44.5" r="44.5"/>
<path class="st1" d="M63.4,57.3V40.1c0-6.4-3.1-12.1-7.9-15.7l3.1-1.2c0.3-0.1,0.5-0.5,0.4-0.8c-0.1-0.3-0.5-0.5-0.8-0.4l-4,1.5
	c-0.1-0.1-0.2-0.1-0.3-0.2l2.5-3.6c0.2-0.3,0.1-0.7-0.2-0.9c-0.3-0.2-0.7-0.1-0.9,0.2l-2.5,3.7c-2.7-1.4-5.8-2.2-9.1-2.2h0
	c-9.4,0-17.3,6.7-19.2,15.5h-4.3c-0.3-0.7-1-1.1-1.8-1.1c-1.1,0-2,0.9-2,2c0,0.9,0.6,1.7,1.5,2c0.8,2.3,2.4,5.4,5.6,7.9
	c1.6,0.4,3.8,0.4,6.2-1c0.3-0.2,0.7-0.1,0.9,0.2c0.2,0.3,0.1,0.7-0.2,0.9c-1.8,1-3.5,1.4-4.9,1.4c-0.5,0-0.9,0-1.3-0.1v9.2
	c-5.2,0.9-8.4,2.1-8.4,3.4c0,2.7,12.7,6.3,28.3,6.3c15.6,0,28.3-3.6,28.3-6.3C72.3,59.4,68.9,58.1,63.4,57.3z"/>
<g id="JBgwjX.tif">
	
		<image style="overflow:visible;" width="418" height="597" id="Layer_0_2_" xlink:href="39AFE66AC9148EC7.png"  transform="matrix(1 0 0 1 -906.4603 -377.3649)">
	</image>
</g>
<circle class="st2" cx="36" cy="34.4" r="1.2"/>
<path class="st0" d="M49.1,37.6l-6.9-2.4c0,0,0,0,0,0c0-0.2,0.1-0.5,0.1-0.8c0-3.2-2.6-5.8-5.8-5.8s-5.8,2.6-5.8,5.8
	s2.6,5.8,5.8,5.8c2.6,0,4.8-1.7,5.6-4.1l6.8,2.4c1.5,0.5,2.4,2.1,2.1,3.7c-0.1,0.3,0.1,0.5,0.4,0.6c0,0,0.1,0,0.1,0
	c0.2,0,0.4-0.2,0.5-0.4C52.2,40.4,51,38.3,49.1,37.6z M36.3,39.2c-2.7,0-4.8-2.2-4.8-4.8s2.2-4.8,4.8-4.8s4.8,2.2,4.8,4.8
	S39,39.2,36.3,39.2z"/>
</svg>
