<svg id="Layer_1" data-name="Layer 1" xmlns="http://www.w3.org/2000/svg" xmlns:xlink="http://www.w3.org/1999/xlink" viewBox="0 0 104.62 104.66"><defs><style>.cls-1,.cls-10,.cls-7,.cls-8{fill:none;}.cls-2{clip-path:url(#clip-path);}.cls-3{fill:#83ff00;}.cls-4{fill:#845d40;}.cls-5{fill:#181716;}.cls-6{fill:#584e47;}.cls-7{stroke:#584e47;}.cls-10,.cls-7,.cls-8{stroke-linecap:round;stroke-linejoin:round;}.cls-8{stroke:#fff;stroke-width:2px;}.cls-9{fill:#e975ba;}.cls-10{stroke:#3e322b;}.cls-11{fill:#2b2320;}.cls-12{fill:#1e1917;}.cls-13{fill:#ec93c9;}</style><clipPath id="clip-path"><circle class="cls-1" cx="52.31" cy="52.36" r="52.31"/></clipPath></defs><title>mole in hole</title><g class="cls-2"><circle class="cls-3" cx="52.74" cy="53.33" r="52.31"/><ellipse class="cls-4" cx="51.88" cy="86.27" rx="62.59" ry="42.33"/><ellipse class="cls-5" cx="53.36" cy="60.53" rx="39.96" ry="11.67"/><path class="cls-6" d="M25.8,67.89l2.42-20.58.34-2.87C31,29.54,39.17,20,52.25,20h0C65.34,20,72.92,29.54,76,44.44l5,23.45Z"/><line class="cls-7" x1="55.55" y1="16.34" x2="53.17" y2="21.66"/><line class="cls-7" x1="51.45" y1="15.83" x2="52.62" y2="21.54"/><circle class="cls-8" cx="39.62" cy="33.95" r="7.89"/><circle class="cls-8" cx="63.83" cy="33.95" r="7.89"/><circle class="cls-9" cx="51.32" cy="49.5" r="2.34"/><line class="cls-8" x1="47.58" y1="30.95" x2="55.24" y2="30.95"/><line class="cls-10" x1="63.22" y1="52.66" x2="57.62" y2="51.02"/><line class="cls-10" x1="63.17" y1="46.33" x2="57.67" y2="48.27"/><line class="cls-10" x1="39.51" y1="52.66" x2="45.1" y2="51.02"/><line class="cls-10" x1="39.55" y1="46.33" x2="45.06" y2="48.27"/><path class="cls-11" d="M45.19,63.8c0-1.76,2.79-5.1,6.29-5.14s6.38,3.25,6.4,5-2.83,1.38-6.33,1.42S45.2,65.56,45.19,63.8Z"/><circle class="cls-12" cx="39.14" cy="31.51" r="1.58"/><polygon class="cls-6" points="28.56 45.79 24.32 52.08 27.11 51.66 24.42 57.12 27.16 56.86 33.79 47.08 28.56 45.79"/><polygon class="cls-6" points="77.64 52.44 81.88 58.73 79.09 58.32 81.78 63.78 79.03 63.52 72.41 53.73 77.64 52.44"/><path class="cls-6" d="M25.8,67.89H80.91S67.05,74.62,51.45,74.2,25.8,67.89,25.8,67.89Z"/><circle class="cls-12" cx="61.68" cy="31.51" r="1.58"/><path class="cls-13" d="M25.62,66.54c-1.79,1.78-2.43,5-2.37,7.34a.61.61,0,0,0,1.1.35l1.89-2.6a.42.42,0,0,1,.76.27l-.15,3.15a.6.6,0,0,0,1.09.39l1.91-2.6a.42.42,0,0,1,.75.25v3.23a.6.6,0,0,0,1,.41,10,10,0,0,0,2.74-6.57c0-2-1.58-3.27-3.33-3.85-1.34-.44-4.06-1-5.25.06A1.54,1.54,0,0,0,25.62,66.54Z"/><path class="cls-13" d="M72.51,69.53c-.32,2.5,1.14,5.41,2.64,7.24a.61.61,0,0,0,1.08-.4l-.1-3.21a.42.42,0,0,1,.76-.26l1.82,2.58a.61.61,0,0,0,1.1-.37l-.1-3.22a.42.42,0,0,1,.75-.27l2,2.55a.6.6,0,0,0,1.08-.32A10,10,0,0,0,81.64,67c-1.21-1.59-3.25-1.61-5-1-1.33.47-3.83,1.7-4.11,3.28Z"/></g></svg>